<?xml version="1.0" standalone="no"?>
<svg viewBox="0 0 200 200" xmlns="http://www.w3.org/2000/svg">
  <path fill="#2C7BFE" d="M41.3,-72.3C54.4,-64,66.5,-54.7,75.3,-42.5C84.2,-30.2,89.7,-15.1,90.4,0.4C91,15.9,86.7,31.7,77.6,43.5C68.5,55.3,54.7,63,40.9,67.5C27.2,72.1,13.6,73.5,-0.5,74.3C-14.5,75.1,-29.1,75.3,-43.3,71.1C-57.5,66.8,-71.4,58,-80.7,45.4C-90,32.8,-94.8,16.4,-91.7,1.8C-88.7,-12.8,-77.7,-25.7,-66.7,-35.4C-55.8,-45.2,-44.8,-51.9,-33.7,-61.3C-22.5,-70.7,-11.3,-82.8,1.4,-85.3C14.1,-87.7,28.2,-80.6,41.3,-72.3Z" transform="translate(100 100)" />
</svg>
